<?xml version="1.0" encoding="UTF-8"?>
<svg id="Layer_1" xmlns="http://www.w3.org/2000/svg" xmlns:xlink="http://www.w3.org/1999/xlink" viewBox="0 0 589.36 139.11">
  <defs>
    <style>
      .cls-1 {
        fill: none;
      }

      .cls-2 {
        fill: url(#Nepojmenovaný_přechod_43-5);
      }

      .cls-3 {
        fill: url(#Nepojmenovaný_přechod_43-3);
      }

      .cls-4 {
        fill: url(#Nepojmenovaný_přechod_43-4);
      }

      .cls-5 {
        fill: url(#Nepojmenovaný_přechod_43-2);
      }

      .cls-6 {
        fill: url(#Nepojmenovaný_přechod_43-6);
      }

      .cls-7 {
        fill: url(#Nepojmenovaný_přechod_48);
      }

      .cls-8 {
        fill: url(#Nepojmenovaný_přechod_47);
      }

      .cls-9 {
        fill: url(#Nepojmenovaný_přechod_46);
      }

      .cls-10 {
        fill: url(#Nepojmenovaný_přechod_43);
      }

      .cls-11 {
        fill: url(#Nepojmenovaný_přechod_41);
      }

      .cls-12 {
        fill: url(#Nepojmenovaný_přechod_59);
      }

      .cls-13 {
        fill: url(#Nepojmenovaný_přechod_57);
      }

      .cls-14 {
        fill: url(#Nepojmenovaný_přechod_53);
      }

      .cls-15 {
        fill: #306db5;
      }

      .cls-16 {
        fill: #353b96;
      }
    </style>
    <linearGradient id="Nepojmenovaný_přechod_41" data-name="Nepojmenovaný přechod 41" x1="198.16" y1="58.81" x2="158.29" y2="97.78" gradientUnits="userSpaceOnUse">
      <stop offset="0" stop-color="#306db5"/>
      <stop offset=".94" stop-color="#6eccf3"/>
    </linearGradient>
    <linearGradient id="Nepojmenovaný_přechod_43" data-name="Nepojmenovaný přechod 43" x1="223.08" y1="41.22" x2="180.17" y2="83.17" gradientUnits="userSpaceOnUse">
      <stop offset="0" stop-color="#306db5"/>
      <stop offset="1" stop-color="#6eccf3"/>
    </linearGradient>
    <linearGradient id="Nepojmenovaný_přechod_43-2" data-name="Nepojmenovaný přechod 43" x1="327.06" y1="129" x2="261.68" y2="36.88" xlink:href="#Nepojmenovaný_přechod_43"/>
    <linearGradient id="Nepojmenovaný_přechod_43-3" data-name="Nepojmenovaný přechod 43" x1="235.4" y1="27.05" x2="273.14" y2="114.78" xlink:href="#Nepojmenovaný_přechod_43"/>
    <linearGradient id="Nepojmenovaný_přechod_47" data-name="Nepojmenovaný přechod 47" x1="393.34" y1="117.61" x2="393.34" y2="3.57" gradientUnits="userSpaceOnUse">
      <stop offset=".05" stop-color="#306db5"/>
      <stop offset="1" stop-color="#6eccf3"/>
    </linearGradient>
    <linearGradient id="Nepojmenovaný_přechod_46" data-name="Nepojmenovaný přechod 46" x1="395.05" y1="5.08" x2="335.08" y2="96.17" gradientUnits="userSpaceOnUse">
      <stop offset=".19" stop-color="#306db5"/>
      <stop offset="1" stop-color="#6eccf3"/>
    </linearGradient>
    <linearGradient id="Nepojmenovaný_přechod_53" data-name="Nepojmenovaný přechod 53" x1="518.82" y1="34.68" x2="440.52" y2="98.06" gradientUnits="userSpaceOnUse">
      <stop offset=".16" stop-color="#306db5"/>
      <stop offset=".95" stop-color="#6eccf3"/>
    </linearGradient>
    <linearGradient id="Nepojmenovaný_přechod_43-4" data-name="Nepojmenovaný přechod 43" x1="469.36" y1="45.86" x2="495.47" y2="81.2" xlink:href="#Nepojmenovaný_přechod_43"/>
    <linearGradient id="Nepojmenovaný_přechod_48" data-name="Nepojmenovaný přechod 48" x1="464.51" y1="72.66" x2="399.74" y2="26.95" gradientUnits="userSpaceOnUse">
      <stop offset="0" stop-color="#306db5"/>
      <stop offset="1" stop-color="#6eccf3"/>
    </linearGradient>
    <linearGradient id="Nepojmenovaný_přechod_43-5" data-name="Nepojmenovaný přechod 43" x1="1162.2" y1="383.13" x2="1112.92" y2="431.3" gradientTransform="translate(1671.9 460.66) rotate(-180)" xlink:href="#Nepojmenovaný_přechod_43"/>
    <linearGradient id="Nepojmenovaný_přechod_59" data-name="Nepojmenovaný přechod 59" x1="1134.43" y1="382.61" x2="1160.54" y2="417.95" gradientTransform="translate(1671.9 460.66) rotate(-180)" gradientUnits="userSpaceOnUse">
      <stop offset="0" stop-color="#306db5"/>
      <stop offset="1" stop-color="#6eccf3"/>
    </linearGradient>
    <linearGradient id="Nepojmenovaný_přechod_57" data-name="Nepojmenovaný přechod 57" x1="1146.77" y1="375.56" x2="1066.9" y2="449.25" gradientTransform="translate(1671.9 460.66) rotate(-180)" gradientUnits="userSpaceOnUse">
      <stop offset=".04" stop-color="#5b50a0"/>
      <stop offset=".06" stop-color="#5752a1"/>
      <stop offset=".25" stop-color="#3a65af"/>
      <stop offset=".37" stop-color="#306db5"/>
      <stop offset=".88" stop-color="#6eccf3"/>
    </linearGradient>
    <linearGradient id="Nepojmenovaný_přechod_43-6" data-name="Nepojmenovaný přechod 43" x1="188.3" y1="32.49" x2="166.52" y2="53.79" xlink:href="#Nepojmenovaný_přechod_43"/>
  </defs>
  <path class="cls-15" d="M0,4.18h50.1c12.28,0,20.93,3.07,26.65,8.78,3.91,3.9,6.28,9.06,6.28,15.74v.28c0,11.28-6.42,17.97-15.07,21.73,11.86,3.9,19.4,10.59,19.4,23.82v.28c0,16.72-13.68,26.89-36.98,26.89H0V4.18ZM43.4,43.05c8.23,0,12.84-2.79,12.84-8.5v-.28c0-5.29-4.19-8.36-12.28-8.36h-17.58v17.14h17.03ZM47.31,79.97c8.23,0,12.98-3.2,12.98-8.92v-.28c0-5.29-4.18-8.78-13.25-8.78h-20.65v17.97h20.93Z"/>
  <path class="cls-15" d="M98.23,26.33h26.51v15.19c4.33-10.31,11.3-17,23.86-16.44v27.86h-2.23c-13.82,0-21.63,7.94-21.63,25.36v23.41h-26.51V26.33Z"/>
  <path class="cls-11" d="M176.23,78.3v.29c0,5.14,3.92,8.21,9.36,8.21,6.57,0,11.48-3.57,12.76-9.32l-.06,16.43c-5.17,5.69-12.3,9.46-22.21,9.46-14.36,0-25.38-8.21-25.38-23.28v-.26c0-15.61,11.86-23.68,29.56-23.68,6.98,0,13.84,1.39,18.14,2.9l-.03,11.75c-2.62-1.07-6.25-1.86-10-1.86-7.67,0-12.15,3.77-12.15,9.35Z"/>
  <path class="cls-10" d="M224.51,58.36v43.33h-26.22v-7.78l.06-16.43c.23-.96.35-2,.35-3.08v-3.48c-.09-.03-.2-.09-.32-.12l.03-11.75v-1.25c0-1.28-.12-2.44-.41-3.51l.29.35s-.32-23.36-22.96-28.62c3.75-.52,7.82-.81,12.35-.81,13.52,0,22.73,3.19,28.75,9.2,5.7,5.57,8.08,13.38,8.08,23.94Z"/>
  <path class="cls-5" d="M312.82,52.39v86.72h-26.51V60.89c0-8.21-4.3-12.68-10.58-12.68s-11.16,4.47-11.16,12.68v-23.97c4.88-6.27,11.86-12.25,22.59-12.25,16.05,0,25.67,10.59,25.67,27.72Z"/>
  <rect class="cls-3" x="238.03" y="26.32" width="26.54" height="75.37"/>
  <path class="cls-8" d="M406.6,0v101.7h-26.51v-33.61c.09-.41.15-.81.2-1.22.15-.9.2-1.83.2-2.79v-.26c0-.87-.06-1.71-.17-2.52-.06-.46-.15-.93-.23-1.39V0h26.51Z"/>
  <path class="cls-9" d="M349.65,63.82v.26c0,2.93.58,5.6,1.66,7.92,2.56,5.66,7.82,9.23,13.84,9.23,7.33,0,13.43-5.28,14.94-13.15v23.6c-5.17,6.27-11.71,11.7-23.02,11.7-3.87,0-7.62-.7-11.1-2.03-12.73-4.85-22.24-18.08-22.24-36.97v-.29c0-24.52,15.35-39.41,33.2-39.41,11.45,0,18.14,5.14,23.17,10.85v24.38c-1.51-7.81-7.62-13.09-14.94-13.09-3.81,0-7.3,1.39-10,3.83-3.34,3.02-5.49,7.63-5.49,13.18Z"/>
  <path class="cls-16" d="M467.44,78.76c-1.89,1.16-3.95,1.94-6.19,2.35,1.72-.55,3.78-1.31,6.19-2.35Z"/>
  <path class="cls-14" d="M508.81,48.52l-12.56,26.73c-3.78,11.52-12.59,20.75-23.81,25.08-33.63-11.99-32.59-32.33-32.59-32.33,2.3,7.75,9.48,13.44,17.99,13.44,1.16,0,2.3-.12,3.4-.32,2.24-.41,4.3-1.19,6.19-2.35,7.38-3.22,17.85-9.17,30.58-20.2,3.43-2.96,7.03-6.3,10.78-10.04Z"/>
  <path class="cls-4" d="M476.6,62.71c0-5.66-2.53-10.74-6.54-14.19,0,0,2.12-20.32-16.02-25.95,1.25-.12,2.53-.17,3.81-.17,20.9,0,38.08,15.85,40.17,36.16-12.73,11.03-23.2,16.98-30.58,20.2,5.49-3.25,9.16-9.23,9.16-16.05Z"/>
  <path class="cls-7" d="M472.44,100.33c-4.53,1.77-9.45,2.73-14.59,2.73-22.3,0-40.38-18.05-40.38-40.34,0-20.95,16.05-38.19,36.54-40.14h.03c18.14,5.63,16.02,25.95,16.02,25.95-3.28-2.79-7.53-4.5-12.21-4.5-10.35,0-18.75,8.36-18.75,18.69,0,1.83.26,3.6.76,5.28,0,0-1.05,20.34,32.59,32.33Z"/>
  <path class="cls-16" d="M539.39,45.15c1.89-1.16,3.95-1.94,6.19-2.35-1.72.55-3.78,1.31-6.19,2.35Z"/>
  <path class="cls-2" d="M498.03,75.39l12.56-26.73c3.78-11.52,12.59-20.75,23.81-25.08,33.63,11.99,32.59,32.33,32.59,32.33-2.3-7.75-9.48-13.44-17.99-13.44-1.16,0-2.3.12-3.4.32-2.24.41-4.3,1.19-6.19,2.35-7.38,3.22-17.85,9.17-30.58,20.2-3.43,2.96-7.03,6.3-10.78,10.04Z"/>
  <path class="cls-12" d="M530.23,61.2c0,5.66,2.53,10.74,6.54,14.19,0,0-2.12,20.32,16.02,25.95-1.25.12-2.53.17-3.81.17-20.9,0-38.08-15.85-40.17-36.16,12.73-11.03,23.2-16.98,30.58-20.2-5.49,3.25-9.16,9.23-9.16,16.05Z"/>
  <path class="cls-13" d="M534.39,23.59c4.53-1.77,9.45-2.73,14.59-2.73,22.3,0,40.38,18.05,40.38,40.34,0,20.95-16.05,38.19-36.54,40.14h-.03c-18.14-5.63-16.02-25.95-16.02-25.95,3.28,2.79,7.53,4.5,12.21,4.5,10.35,0,18.75-8.36,18.75-18.69,0-1.83-.26-3.6-.76-5.28,0,0,1.05-20.34-32.59-32.33Z"/>
  <line class="cls-1" x1="198.38" y1="70.82" x2="198.35" y2="77.49"/>
  <path class="cls-6" d="M198.29,54.65l-.29-.35c-.73-3.19-2.59-5.57-5.64-7.02-2.33-1.13-5.32-1.71-9.01-1.71-7.97,0-14.1,1.54-20.78,4.18l-5.46-18.66c5.52-2.26,11.28-4.06,18.2-5.05h.03c22.64,5.25,22.96,28.62,22.96,28.62Z"/>
  <polyline class="cls-1" points="380.29 66.87 380.32 61.3 380.49 29.78"/>
</svg>